<svg xmlns="http://www.w3.org/2000/svg" style="display: none;" id="app-icons">
  <symbol id="icon-stack" viewBox="0 0 256 256">
    <path fill="currentColor" d="M229.75146,196.61035l-8.28173-30.9082-.00049-.00195-.00049-.00184L196.62256,72.97217v-.00086l-8.28223-30.90979a12.00916,12.00916,0,0,0-14.69678-8.48437l-30.90966,8.28222a11.99256,11.99256,0,0,0-3.61182,1.656A12.01237,12.01237,0,0,0,128,36H96a11.93662,11.93662,0,0,0-8,3.081A11.93662,11.93662,0,0,0,80,36H48A12.01343,12.01343,0,0,0,36,48V208a12.01343,12.01343,0,0,0,12,12H80a11.93662,11.93662,0,0,0,8-3.08105A11.93662,11.93662,0,0,0,96,220h32a12.01343,12.01343,0,0,0,12-12V78.02l2.53027,9.44373.00049.00109.00049.00122,24.84619,92.72706v.00122l.00049.00146,8.28174,30.90772a11.98984,11.98984,0,0,0,14.69678,8.48535l30.90966-8.28223a11.99918,11.99918,0,0,0,8.48535-14.69629ZM151.293,89.25781,189.93066,78.9054l22.77588,85.00207-38.63672,10.353ZM96,44h32a4.00427,4.00427,0,0,1,4,4V172H92V48A4.00427,4.00427,0,0,1,96,44ZM48,44H80a4.00427,4.00427,0,0,1,4,4V76H44V48A4.00427,4.00427,0,0,1,48,44ZM80,212H48a4.00427,4.00427,0,0,1-4-4V84H84V208A4.00427,4.00427,0,0,1,80,212Zm48,0H96a4.00427,4.00427,0,0,1-4-4V180h40v28A4.00427,4.00427,0,0,1,128,212ZM142.37549,51.4502a3.97587,3.97587,0,0,1,2.4292-1.86426l30.90918-8.28223a3.99814,3.99814,0,0,1,4.89892,2.82813l7.24756,27.04687L149.22266,81.53113l-7.24659-27.04578A3.9718,3.9718,0,0,1,142.37549,51.4502Zm79.249,150.26562a3.97594,3.97594,0,0,1-2.4292,1.86426l-30.90918,8.28222a4.00907,4.00907,0,0,1-4.89892-2.8291l-7.24707-27.04614,38.63672-10.353,7.24707,27.04663A3.97183,3.97183,0,0,1,221.62451,201.71582Z"/>
  </symbol>
  <symbol id="icon-notebook" viewBox="0 0 24 24">
    <path fill="currentColor" d="M8,3 L8,17 L19,17 L19,3.5 C19,3.22385763 18.7761424,3 18.5,3 L8,3 Z M7,3 L6.5,3 C5.67157288,3 5,3.67157288 5,4.5 L5,17.4998169 C5.41783027,17.1859724 5.93719704,17 6.5,17 L7,17 L7,3 Z M4.15121433,20.3582581 C4.05793442,20.2674293 4,20.1404803 4,20 L4,4.5 C4,3.11928813 5.11928813,2 6.5,2 L18.5,2 C19.3284271,2 20,2.67157288 20,3.5 L20,20.5 C20,21.3284271 19.3284271,22 18.5,22 L6.5,22 C5.42082093,22 4.50134959,21.3162099 4.15121433,20.3582581 L4.15121433,20.3582581 Z M19,18 L6.5,18 C5.67157288,18 5,18.6715729 5,19.5 C5,20.3284271 5.67157288,21 6.5,21 L18.5,21 C18.7761424,21 19,20.7761424 19,20.5 L19,18 Z M10.5,10 C10.2238576,10 10,9.77614237 10,9.5 C10,9.22385763 10.2238576,9 10.5,9 L16.5,9 C16.7761424,9 17,9.22385763 17,9.5 C17,9.77614237 16.7761424,10 16.5,10 L10.5,10 Z M10.5,8 C10.2238576,8 10,7.77614237 10,7.5 C10,7.22385763 10.2238576,7 10.5,7 L14.5,7 C14.7761424,7 15,7.22385763 15,7.5 C15,7.77614237 14.7761424,8 14.5,8 L10.5,8 Z"/>
  </symbol>
  <symbol id="icon-note" viewBox="0 0 24 24" fill="none" stroke="currentColor" stroke-width="2" stroke-linecap="round" stroke-linejoin="round">
    <path d="M14 2H6a2 2 0 0 0-2 2v16a2 2 0 0 0 2 2h12a2 2 0 0 0 2-2V8z"></path>
    <polyline points="14 2 14 8 20 8"></polyline>
    <line x1="16" y1="13" x2="8" y2="13"></line>
    <line x1="16" y1="17" x2="8" y2="17"></line>
  </symbol>
  <symbol id="icon-file" viewBox="0 0 24 24" fill="none" stroke="currentColor" stroke-width="2" stroke-linecap="round" stroke-linejoin="round">
    <path d="M7 3h7l5 5v13a1 1 0 0 1-1 1H7a1 1 0 0 1-1-1V4a1 1 0 0 1 1-1zM14 3v6h6"></path>
  </symbol>
  <symbol id="icon-search" viewBox="0 0 24 24" fill="none" stroke="currentColor" stroke-width="2" stroke-linecap="round" stroke-linejoin="round">
    <path d="M11 4a7 7 0 1 0 4.9 12l4.3 4.3 1.4-1.4-4.3-4.3A7 7 0 0 0 11 4z"></path>
  </symbol>
  <symbol id="icon-plus" viewBox="0 0 24 24" fill="none" stroke="currentColor" stroke-width="2" stroke-linecap="round" stroke-linejoin="round">
    <line x1="12" y1="5" x2="12" y2="19"></line>
    <line x1="5" y1="12" x2="19" y2="12"></line>
  </symbol>
  <symbol id="icon-tag" viewBox="0 0 24 24" fill="none" stroke="currentColor" stroke-width="2" stroke-linecap="round" stroke-linejoin="round">
    <path d="M20.59 13.41 11 3.83A2 2 0 0 0 9.59 3H4a1 1 0 0 0-1 1v5.59A2 2 0 0 0 3.83 11l9.59 9.59a2 2 0 0 0 2.83 0l4.34-4.34a2 2 0 0 0 0-2.83Z"></path>
    <circle cx="7.5" cy="7.5" r="1.5"></circle>
  </symbol>
  <symbol id="icon-filter" viewBox="0 0 24 24" fill="none" stroke="currentColor" stroke-width="2" stroke-linecap="round" stroke-linejoin="round">
    <polygon points="22 3 2 3 10 12 10 19 14 21 14 12 22 3"></polygon>
  </symbol>
  <symbol id="icon-sort" viewBox="0 0 24 24" fill="none" stroke="currentColor" stroke-width="2" stroke-linecap="round" stroke-linejoin="round">
    <path d="M11 5h10"></path>
    <path d="M11 9h7"></path>
    <path d="M11 13h4"></path>
    <path d="M3 17V3"></path>
    <path d="M7 13l-4 4-4-4"></path>
  </symbol>
  <symbol id="icon-view" viewBox="0 0 24 24" fill="none" stroke="currentColor" stroke-width="2" stroke-linecap="round" stroke-linejoin="round">
    <rect x="3" y="4" width="18" height="6" rx="2"></rect>
    <rect x="3" y="14" width="18" height="6" rx="2"></rect>
  </symbol>
  <symbol id="icon-image" viewBox="0 0 24 24" fill="none" stroke="currentColor" stroke-width="2" stroke-linecap="round" stroke-linejoin="round">
    <rect x="3" y="5" width="18" height="14" rx="2" ry="2"></rect>
    <circle cx="8" cy="9" r="2"></circle>
    <path d="M21 17l-5-5-4 4-2-2-5 5"></path>
  </symbol>
  <symbol id="icon-lock" viewBox="0 0 24 24" fill="none" stroke="currentColor" stroke-width="2" stroke-linecap="round" stroke-linejoin="round">
    <rect x="5" y="11" width="14" height="10" rx="2"></rect>
    <path d="M8 11V7a4 4 0 0 1 8 0v4"></path>
  </symbol>
  <symbol id="icon-attach" viewBox="0 0 24 24" fill="none" stroke="currentColor" stroke-width="2" stroke-linecap="round" stroke-linejoin="round">
    <path d="M21.44 11.05 12.95 19.54a5 5 0 0 1-7.07-7.07l8.49-8.49a3.5 3.5 0 0 1 4.95 4.95l-8.5 8.49a2 2 0 0 1-2.83-2.83l7.78-7.78"></path>
  </symbol>
  <symbol id="icon-chevron" viewBox="0 0 24 24" fill="none" stroke="currentColor" stroke-width="2" stroke-linecap="round" stroke-linejoin="round">
    <polyline points="9 18 15 12 9 6"></polyline>
  </symbol>
  <symbol id="icon-close" viewBox="0 0 24 24" fill="none" stroke="currentColor" stroke-width="2" stroke-linecap="round" stroke-linejoin="round">
    <line x1="18" y1="6" x2="6" y2="18"></line>
    <line x1="6" y1="6" x2="18" y2="18"></line>
  </symbol>
</svg>
